<?xml version="1.0" standalone="no"?>
<!DOCTYPE svg PUBLIC "-//W3C//DTD SVG 20010904//EN"
 "http://www.w3.org/TR/2001/REC-SVG-20010904/DTD/svg10.dtd">
<svg version="1.0" xmlns="http://www.w3.org/2000/svg"
 width="1024.000000pt" height="1024.000000pt" viewBox="0 0 1024.000000 1024.000000"
 preserveAspectRatio="xMidYMid meet">

<g transform="translate(0.000000,1024.000000) scale(0.100000,-0.100000)"
fill="#000000" stroke="none">
<path d="M0 5120 l0 -5120 5120 0 5120 0 0 5120 0 5120 -5120 0 -5120 0 0
-5120z m5160 3430 c0 -5 -5 -10 -11 -10 -5 0 -7 5 -4 10 3 6 8 10 11 10 2 0 4
-4 4 -10z m-270 -100 c0 -5 -7 -10 -15 -10 -8 0 -15 5 -15 10 0 6 7 10 15 10
8 0 15 -4 15 -10z m-889 -223 c-13 -13 -26 -3 -16 12 3 6 11 8 17 5 6 -4 6
-10 -1 -17z m1469 13 c0 -5 -4 -10 -10 -10 -5 0 -10 5 -10 10 0 6 5 10 10 10
6 0 10 -4 10 -10z m237 -49 c17 -9 17 -11 -3 -31 -19 -20 -21 -20 -36 -3 -12
14 -13 25 -5 53 8 32 10 33 17 13 5 -12 17 -26 27 -32z m-267 23 c0 -8 -5 -12
-10 -9 -6 4 -8 11 -5 16 9 14 15 11 15 -7z m-774 -33 c-8 -13 -36 -15 -36 -3
0 4 5 13 12 20 14 14 34 0 24 -17z m807 -8 c-4 -10 -9 -11 -16 -4 -5 5 -7 18
-3 28 6 14 9 15 16 4 4 -8 6 -21 3 -28z m22 -35 l-7 -33 21 19 c11 11 21 15
21 10 0 -5 -9 -16 -19 -24 -11 -7 -17 -18 -13 -24 3 -6 7 -35 7 -65 0 -37 4
-56 14 -59 10 -3 11 0 5 9 -4 8 7 -1 25 -18 18 -18 30 -37 27 -41 -3 -5 0 -9
7 -9 7 0 19 -2 27 -4 10 -3 15 3 14 17 -1 11 5 21 13 21 8 0 11 -7 7 -19 -4
-14 0 -18 16 -18 12 0 19 4 15 9 -3 5 -1 12 5 16 9 6 14 -6 11 -31 -1 -6 5
-11 14 -11 8 0 12 4 9 8 -2 4 0 10 6 14 5 3 10 1 10 -4 0 -6 7 -11 15 -11 8 0
15 5 15 11 0 5 4 7 10 4 5 -3 7 0 4 8 -5 14 17 39 32 36 23 -4 35 3 32 19 -2
9 3 16 10 15 6 -2 12 4 12 12 0 9 6 12 16 8 14 -5 15 -3 4 18 -7 13 -9 21 -5
16 5 -4 21 4 36 19 22 21 31 24 46 15 17 -10 17 -10 1 -11 -10 0 -18 -4 -18
-10 0 -5 -6 -7 -14 -4 -9 3 -15 -4 -18 -20 -6 -30 -2 -32 18 -11 8 8 22 11 31
8 9 -4 14 -2 10 3 -3 6 4 11 16 11 12 1 17 -1 12 -5 -6 -4 -19 -18 -30 -32
l-20 -25 21 18 c12 9 28 15 36 12 11 -5 14 1 13 24 -1 21 4 31 16 34 20 5 39
-10 39 -32 0 -14 2 -14 10 -1 6 9 5 17 -3 22 -7 4 -7 8 -2 8 6 0 16 -4 23 -9
11 -7 11 -12 1 -28 -7 -11 -9 -28 -5 -38 6 -17 7 -17 21 1 14 19 14 19 16 -1
1 -11 2 -26 2 -33 -1 -9 7 -6 21 7 22 21 56 20 56 -1 0 -5 4 -6 10 -3 6 3 7
-1 4 -9 -3 -9 -1 -16 5 -16 7 0 14 7 18 15 4 12 8 10 19 -10 12 -23 11 -37 -7
-107 -16 -63 -19 -88 -11 -112 l10 -31 2 30 c1 17 2 34 1 38 -1 5 3 5 9 2 6
-4 9 -13 6 -20 -2 -7 2 -21 11 -32 13 -16 14 -16 9 0 -3 9 -1 17 4 17 6 0 10
-4 10 -10 0 -5 5 -10 11 -10 6 0 9 9 6 19 -3 13 0 18 12 16 9 -2 18 -4 21 -4
2 -1 -1 -6 -7 -12 -12 -12 -7 -39 8 -39 4 0 5 8 2 18 -6 15 -5 15 10 4 13 -11
14 -17 4 -27 -7 -7 -15 -11 -19 -8 -5 2 -8 -1 -8 -6 0 -6 5 -11 11 -11 5 0 8
-4 4 -9 -3 -5 0 -13 6 -17 7 -4 9 -3 6 3 -8 13 20 38 50 46 25 6 27 -13 3 -26
-9 -4 -5 -6 13 -4 15 3 27 0 27 -4 0 -5 -5 -9 -11 -9 -6 0 -4 -7 5 -15 8 -8
22 -12 30 -9 9 3 16 2 16 -4 0 -5 7 -13 16 -16 10 -4 13 -2 8 7 -5 9 -4 9 7 0
15 -15 33 -17 25 -4 -3 5 4 11 15 14 19 5 20 4 5 -12 -21 -24 -20 -34 2 -22
16 9 18 6 17 -19 -2 -41 11 -60 28 -39 15 20 28 24 36 11 4 -6 30 11 59 39 29
27 54 49 57 49 3 0 5 -12 5 -26 0 -23 1 -24 16 -10 8 9 20 14 25 11 5 -4 9 -1
9 5 0 6 5 8 11 5 7 -5 4 -15 -6 -32 -10 -14 -13 -23 -7 -19 5 3 15 -1 21 -8 8
-10 9 -16 1 -21 -16 -10 -12 -24 8 -20 9 1 16 8 15 14 -4 13 4 15 12 2 3 -5
-3 -17 -12 -27 -13 -13 -14 -19 -5 -22 7 -2 10 -8 6 -13 -3 -5 0 -9 5 -9 6 0
11 9 11 19 0 21 17 37 27 27 8 -8 -32 -62 -44 -59 -5 1 -10 -8 -10 -19 -2 -26
-25 -42 -35 -25 -5 8 -8 6 -8 -6 0 -13 6 -16 23 -12 12 3 72 14 132 25 61 10
140 26 177 34 36 7 123 22 192 31 l126 18 27 -24 c38 -35 141 -199 125 -199
-5 0 -35 40 -66 89 -31 49 -63 94 -71 101 -11 9 -30 9 -85 0 -38 -6 -70 -14
-70 -17 0 -3 38 -51 85 -108 69 -84 82 -105 68 -109 -10 -3 -58 -12 -108 -22
l-90 -16 -60 68 c-33 38 -76 85 -95 106 l-35 37 -105 -21 c-58 -12 -107 -22
-109 -24 -2 -2 38 -50 89 -108 50 -59 90 -106 88 -106 -2 0 -50 -9 -108 -21
l-105 -20 -35 38 c-19 21 -62 69 -95 105 l-60 68 -108 -21 c-96 -19 -106 -23
-95 -38 7 -9 48 -57 90 -107 l77 -91 -102 -22 c-56 -11 -105 -21 -108 -21 -4
0 -48 48 -99 106 l-92 106 -42 -6 c-22 -4 -71 -14 -109 -22 l-67 -16 32 -40
c18 -22 41 -51 51 -64 l19 -24 -109 1 c-59 1 -98 4 -85 6 27 5 26 39 -1 37 -9
-1 -17 2 -17 7 0 5 -7 9 -16 9 -9 0 -22 8 -29 17 -11 15 -19 15 -59 6 -34 -7
-44 -7 -38 1 5 6 40 52 77 101 37 50 83 107 101 128 19 20 34 43 34 51 0 19
-78 87 -176 152 -136 90 -315 165 -466 195 -82 17 -355 16 -438 0 -212 -42
-456 -156 -588 -276 l-41 -36 -53 24 c-29 14 -66 29 -83 35 -16 6 -23 11 -15
11 8 0 32 -6 52 -13 41 -15 51 -6 41 35 -4 15 -3 20 5 15 15 -9 15 -1 1 27 -8
16 -4 14 13 -7 23 -27 24 -27 38 -10 14 18 14 18 -5 4 -19 -14 -19 -14 -6 2 7
10 17 16 21 13 5 -3 44 19 87 49 81 55 223 131 304 161 45 16 46 18 39 48 -4
18 -11 39 -15 48 -3 10 -2 20 4 24 6 3 11 11 11 16 0 6 -5 7 -12 3 -7 -4 -8
-3 -4 5 4 6 3 18 -4 26 -8 9 -8 15 0 20 6 4 8 15 5 26 -9 27 34 44 52 20 6 -9
9 -20 6 -25 -4 -5 -1 -6 6 -2 7 5 10 15 7 23 -3 8 -1 11 5 8 5 -4 18 -1 27 6
13 10 14 10 6 1 -13 -15 -6 -65 7 -56 5 3 9 -1 9 -8 0 -10 3 -9 9 1 7 10 4 19
-7 28 -15 12 -14 13 6 3 12 -6 20 -16 16 -22 -4 -6 2 -8 17 -4 l24 7 -22 -19
-22 -19 23 -12 c25 -14 78 -22 71 -11 -2 4 2 7 10 7 8 0 13 -5 12 -11 -1 -6 6
-10 17 -8 14 3 17 -1 13 -12 -4 -9 -2 -16 4 -16 6 0 7 -4 4 -10 -4 -6 36 -10
112 -10 65 0 160 -7 212 -15 52 -9 96 -13 99 -10 3 3 -2 5 -11 5 -9 0 -17 5
-17 11 0 5 3 8 8 6 4 -3 13 1 20 9 7 8 8 14 2 14 -13 0 -13 27 -1 32 6 2 11
24 12 51 2 26 7 47 12 47 9 0 7 14 -8 55 l-8 20 16 -20 c16 -19 16 -19 11 8
-3 16 -1 26 5 23 5 -3 12 1 15 10 4 12 1 14 -13 9 -11 -3 -22 -1 -26 4 -4 7 1
8 11 4 14 -5 16 -2 12 14 -5 18 -2 21 18 17 13 -2 24 -1 23 3 -2 13 1 23 7 23
3 0 2 -15 -1 -32z m245 22 c0 -5 -5 -10 -11 -10 -5 0 -7 5 -4 10 3 6 8 10 11
10 2 0 4 -4 4 -10z m-892 -39 c3 -8 -1 -12 -9 -9 -7 2 -15 10 -17 17 -3 8 1
12 9 9 7 -2 15 -10 17 -17z m1363 -8 c13 -16 12 -17 -3 -4 -10 7 -18 15 -18
17 0 8 8 3 21 -13z m-61 -7 c0 -2 -7 -7 -16 -10 -8 -3 -12 -2 -9 4 6 10 25 14
25 6z m-1474 -31 c-3 -8 -1 -15 5 -15 6 0 8 -9 3 -22 -9 -30 -10 -31 -24 -23
-8 5 -6 11 6 19 11 9 13 15 6 20 -10 6 -6 36 5 36 3 0 3 -7 -1 -15z m2001 -19
c-7 -18 -16 -20 -37 -6 -13 8 -12 11 5 24 22 16 41 6 32 -18z m-787 14 c0 -5
-2 -10 -4 -10 -3 0 -8 5 -11 10 -3 6 -1 10 4 10 6 0 11 -4 11 -10z m-330 -21
c0 -6 -4 -7 -10 -4 -5 3 -10 11 -10 16 0 6 5 7 10 4 6 -3 10 -11 10 -16z m165
11 c3 -5 1 -10 -4 -10 -6 0 -11 5 -11 10 0 6 2 10 4 10 3 0 8 -4 11 -10z
m-995 -4 c0 -3 -4 -8 -10 -11 -5 -3 -10 -1 -10 4 0 6 5 11 10 11 6 0 10 -2 10
-4z m1428 -12 c14 -15 17 -15 27 0 14 19 51 21 58 4 2 -7 0 -21 -5 -31 -8 -16
-11 -16 -30 -3 -14 10 -26 12 -33 6 -8 -7 -19 -2 -35 15 -26 27 -9 35 18 9z
m-2178 -8 c0 -3 -4 -8 -10 -11 -5 -3 -10 -1 -10 4 0 6 5 11 10 11 6 0 10 -2
10 -4z m444 -12 c11 -29 6 -44 -14 -44 -25 0 -36 25 -20 45 16 19 26 19 34 -1z
m1692 -20 c-19 -18 -21 -11 -4 19 7 14 13 17 15 10 3 -7 -3 -20 -11 -29z
m-574 19 c-6 -2 -9 -10 -6 -15 4 -7 2 -8 -5 -4 -13 9 -5 26 12 25 9 0 8 -2 -1
-6z m626 -35 c-2 -6 -10 -14 -16 -16 -7 -2 -10 2 -6 12 7 18 28 22 22 4z m122
-9 c0 -6 -4 -7 -10 -4 -5 3 -10 11 -10 16 0 6 5 7 10 4 6 -3 10 -11 10 -16z
m-1385 -9 c-3 -5 2 -10 10 -12 14 -3 14 -6 2 -22 -9 -12 -19 -16 -27 -11 -9 6
-9 9 0 15 9 6 9 13 1 29 -10 17 -9 20 4 15 8 -3 13 -10 10 -14z m103 -76 c0
-18 -3 -22 -9 -13 -11 18 -11 39 0 39 5 0 9 -12 9 -26z m25 11 c-3 -9 -8 -14
-10 -11 -3 3 -2 9 2 15 9 16 15 13 8 -4z m112 5 c3 -5 1 -10 -4 -10 -6 0 -11
5 -11 10 0 6 2 10 4 10 3 0 8 -4 11 -10z m-1055 -26 c0 -8 -7 -14 -15 -14 -15
0 -21 21 -9 33 10 9 24 -2 24 -19z m425 -24 c3 -5 1 -10 -4 -10 -6 0 -11 5
-11 10 0 6 2 10 4 10 3 0 8 -4 11 -10z m2024 -92 c-13 -25 -36 -22 -45 4 -9
31 24 55 42 30 8 -11 9 -22 3 -34z m-81 20 c19 -19 14 -30 -8 -18 -11 6 -20
15 -20 20 0 14 14 12 28 -2z m-54 -64 c5 -14 4 -15 -9 -4 -17 14 -19 20 -6 20
5 0 12 -7 15 -16z m29 -29 c-10 -7 -20 -12 -21 -10 -7 7 23 33 31 28 5 -3 0
-11 -10 -18z m-1973 1 c0 -3 -4 -8 -10 -11 -5 -3 -10 -1 -10 4 0 6 5 11 10 11
6 0 10 -2 10 -4z m-150 -16 c0 -5 -4 -10 -10 -10 -5 0 -10 5 -10 10 0 6 5 10
10 10 6 0 10 -4 10 -10z m2203 -17 c-7 -2 -19 -2 -25 0 -7 3 -2 5 12 5 14 0
19 -2 13 -5z m542 -22 c-3 -22 -49 -21 -53 1 -2 13 4 16 26 16 21 -1 29 -6 27
-17z m-3825 -17 c0 -14 -21 -19 -33 -7 -9 9 13 34 24 27 5 -3 9 -12 9 -20z
m3280 6 c0 -5 -9 -10 -21 -10 -11 0 -17 5 -14 10 3 6 13 10 21 10 8 0 14 -4
14 -10z m-1185 -34 c136 -29 270 -86 392 -168 l61 -42 -31 -43 c-50 -71 -49
-71 -125 -21 -148 100 -284 146 -452 155 -219 11 -428 -50 -588 -173 l-44 -33
-44 51 c-24 29 -44 55 -44 60 0 12 109 82 195 125 116 58 208 86 360 107 56 8
249 -3 320 -18z m1615 -46 c-5 -3 -8 -12 -7 -20 1 -8 -2 -16 -8 -17 -5 -1 -9
8 -7 20 2 17 0 19 -7 7 -11 -17 -27 -7 -16 10 4 6 13 9 21 6 9 -3 14 1 14 12
0 14 2 15 10 2 5 -8 5 -17 0 -20z m-50 16 c0 -2 -7 -7 -16 -10 -8 -3 -12 -2
-9 4 6 10 25 14 25 6z m-3145 -23 c-120 -7 -178 -15 -165 -23 9 -5 -4 -11 -36
-15 -86 -12 -226 -45 -309 -72 -379 -123 -724 -418 -910 -775 -52 -101 -124
-287 -126 -326 0 -14 -2 -13 -8 3 l-8 20 -6 -20 c-13 -44 -30 -155 -37 -250
-8 -96 -8 -95 -5 40 3 118 8 159 34 258 53 204 121 347 249 525 177 248 458
454 758 556 183 62 313 84 499 83 66 0 98 -2 70 -4z m3235 -3 c0 -5 -4 -10
-10 -10 -5 0 -10 5 -10 10 0 6 5 10 10 10 6 0 10 -4 10 -10z m-2815 -10 c-3
-5 2 -10 11 -10 10 0 15 -3 11 -6 -10 -10 -39 5 -32 16 3 5 8 10 11 10 3 0 2
-4 -1 -10z m-122 -17 c-7 -2 -19 -2 -25 0 -7 3 -2 5 12 5 14 0 19 -2 13 -5z
m1292 -183 c70 -22 197 -85 241 -119 l24 -19 -41 -46 -41 -46 -26 19 c-49 34
-146 78 -213 96 -51 13 -93 16 -185 13 -135 -5 -223 -30 -325 -93 -31 -19 -59
-35 -61 -35 -3 0 -24 22 -47 50 l-42 50 63 40 c74 47 195 96 270 110 93 16
303 5 383 -20z m-2242 -38 c-12 -9 -23 -28 -25 -41 -2 -20 2 -26 22 -31 22 -5
18 -9 -42 -43 -86 -48 -99 -68 -18 -27 34 17 58 25 54 18 -18 -28 5 -98 32
-98 9 0 12 -5 8 -12 -5 -8 -1 -9 12 -5 24 9 21 7 -107 -83 -51 -36 -135 -107
-187 -157 -93 -92 -97 -94 -36 -20 38 45 37 57 -1 97 -33 34 -50 37 -79 13
-12 -10 17 23 64 72 65 68 75 81 40 55 -25 -19 -83 -70 -129 -115 -49 -46 -73
-65 -57 -44 25 34 25 38 11 53 -20 20 -25 20 -55 -1 -38 -27 82 107 147 164
89 76 153 119 259 174 104 52 122 59 87 31z m2113 -213 c53 -34 316 -221 430
-306 40 -29 74 -53 78 -53 3 0 6 36 6 80 0 68 3 81 19 90 12 6 101 10 220 10
l199 0 31 -26 31 -26 0 -111 c0 -62 3 -162 6 -223 l7 -110 56 -36 c331 -210
429 -274 449 -291 21 -20 22 -28 20 -111 -3 -85 -4 -91 -28 -103 -15 -8 -66
-13 -132 -13 l-108 0 0 -579 0 -578 -23 -33 c-12 -19 -38 -43 -57 -54 -33 -20
-61 -21 -815 -32 -1158 -18 -1746 -19 -1776 -4 -34 18 -69 51 -84 80 -10 19
-14 162 -20 605 l-7 580 -118 0 c-84 0 -122 4 -133 14 -14 11 -17 33 -17 116
l0 103 138 87 c75 48 178 114 227 146 50 32 181 116 292 186 112 71 353 223
535 340 183 116 360 227 393 247 76 46 114 47 181 5z m3054 -20 c12 -8 10 -9
-8 -4 -12 4 -47 -1 -78 -10 -45 -13 -69 -29 -119 -78 -34 -34 -70 -75 -79 -92
l-17 -30 6 27 c14 68 62 135 116 164 58 30 152 42 179 23z m128 -22 c12 -11
36 -42 53 -69 17 -26 33 -48 36 -48 13 0 -11 58 -39 92 -16 21 -25 38 -20 38
20 0 73 -53 92 -91 20 -38 37 -55 46 -46 9 8 -26 68 -53 93 -33 30 -16 31 28
1 19 -12 45 -44 59 -71 26 -49 50 -71 50 -43 0 8 -11 31 -25 51 -13 20 -21 36
-16 36 17 0 91 -80 104 -112 15 -35 28 -138 18 -138 -17 2 -74 39 -59 40 14 0
15 5 7 28 -8 24 -18 30 -67 40 -32 7 -66 18 -76 25 -16 12 -22 11 -42 -8 -13
-12 -24 -27 -24 -33 0 -7 -52 -9 -167 -5 -93 3 -170 7 -172 9 -1 1 8 27 21 56
27 57 111 158 133 158 7 0 29 -22 49 -50 36 -51 56 -63 56 -35 0 30 -30 75
-60 90 -17 9 -30 18 -30 21 0 14 77 -9 98 -29z m-1196 16 c-19 -4 -20 -6 -7
-19 8 -8 12 -21 9 -29 -4 -8 -1 -15 5 -15 6 0 13 11 17 25 3 14 10 25 15 25
15 0 -9 -41 -50 -85 -20 -22 -26 -31 -13 -21 20 17 22 17 22 3 0 -10 4 -17 8
-17 5 0 9 7 9 15 0 8 -4 15 -9 15 -5 0 -6 5 -3 10 4 6 10 8 15 5 5 -3 11 4 15
15 3 11 11 20 16 20 5 0 3 -16 -5 -35 -12 -29 -13 -36 -1 -42 11 -7 11 -10 -1
-21 -8 -7 -14 -8 -14 -3 0 6 -21 1 -46 -12 -42 -20 -44 -22 -22 -29 13 -4 2
-5 -27 -3 -27 2 -93 7 -145 11 -52 3 -113 10 -135 14 -22 5 -97 14 -168 20
-70 6 -137 14 -149 19 -15 5 79 28 308 73 181 37 340 66 354 66 23 -1 23 -1 2
-5z m-4016 -19 c-9 -8 -16 -17 -16 -20 0 -14 64 -114 72 -114 6 0 -34 -34 -88
-75 -55 -41 -117 -89 -139 -107 -28 -23 -34 -25 -18 -8 25 29 19 43 -38 78
-47 28 -60 28 -101 -4 -18 -15 12 18 67 73 67 67 127 115 180 146 82 49 108
58 81 31z m4810 -63 c-20 -22 -88 -177 -91 -208 -1 -13 -17 -33 -38 -48 l-37
-25 6 28 c27 122 54 172 132 239 41 36 54 43 28 14z m-699 3 c-3 -3 -12 -4
-19 -1 -8 3 -5 6 6 6 11 1 17 -2 13 -5z m3 -44 c0 -5 -5 -10 -11 -10 -5 0 -7
5 -4 10 3 6 8 10 11 10 2 0 4 -4 4 -10z m-5640 -14 c-86 -20 -170 -49 -164
-57 2 -4 30 1 61 12 86 29 88 22 3 -10 -142 -53 -230 -110 -322 -209 -135
-145 -201 -315 -202 -522 0 -139 16 -209 80 -339 31 -62 43 -96 36 -103 -15
-15 -27 -4 -60 55 -70 122 -108 297 -98 440 8 118 28 194 81 302 97 202 279
354 500 419 33 10 65 19 70 21 6 2 24 3 40 3 20 0 12 -4 -25 -12z m83 -13 c-7
-2 -21 -2 -30 0 -10 3 -4 5 12 5 17 0 24 -2 18 -5z m-66 -9 c-3 -3 -12 -4 -19
-1 -8 3 -5 6 6 6 11 1 17 -2 13 -5z m5670 -16 c-3 -8 -6 -5 -6 6 -1 11 2 17 5
13 3 -3 4 -12 1 -19z m-708 -4 c2 -2 -29 -54 -70 -115 -41 -62 -76 -116 -79
-120 -3 -5 -26 -5 -50 0 -25 5 -36 9 -25 10 12 1 16 4 9 9 -13 9 -33 66 -36
101 -1 14 -4 -5 -8 -44 l-6 -70 -2 68 c-2 62 1 71 35 123 l37 56 96 -7 c52 -3
97 -8 99 -11z m574 -11 c-3 -7 -9 -13 -15 -13 -5 0 -7 4 -4 9 4 5 0 11 -6 14
-7 3 -3 4 8 4 14 -1 20 -6 17 -14z m67 13 c0 -2 -7 -9 -15 -16 -13 -11 -14
-10 -9 4 5 14 24 23 24 12z m-4035 -36 c-14 -16 -15 -24 -7 -49 10 -28 8 -33
-21 -55 -65 -48 -87 -59 -87 -45 0 8 -8 19 -19 26 -15 9 -23 8 -42 -4 -13 -9
-2 7 25 35 27 28 74 64 105 81 66 36 69 37 46 11z m3814 4 c1 -1 -8 -18 -21
-36 -14 -18 -51 -77 -84 -131 -53 -88 -61 -97 -84 -93 -14 3 -55 8 -93 12 -37
3 -69 9 -71 13 -3 4 31 62 75 129 l80 123 97 -7 c53 -4 99 -8 101 -10z m369
-40 c17 -3 32 -7 32 -9 0 -2 -25 -44 -56 -92 -31 -48 -67 -105 -80 -125 -23
-36 -26 -37 -67 -32 -23 3 -67 8 -99 12 l-56 7 81 128 82 128 65 -6 c36 -3 80
-8 98 -11z m1095 -384 c-7 -408 -21 -391 -22 26 -1 198 2 364 7 368 14 15 19
-121 15 -394z m-89 321 c23 -9 26 -14 16 -26 -10 -12 -41 -15 -156 -15 -79 0
-144 4 -144 8 0 19 27 41 55 46 47 7 197 -1 229 -13z m-6764 -21 c-12 -8 -10
-10 10 -10 15 0 -2 -10 -43 -25 -101 -35 -171 -81 -244 -159 -165 -179 -200
-422 -92 -644 24 -49 28 -67 19 -75 -9 -9 -15 -7 -26 8 -81 106 -116 317 -79
474 43 179 203 359 377 421 59 21 104 27 78 10z m1616 -26 c21 -51 8 -62 -71
-62 -36 0 -65 4 -65 8 0 12 93 89 108 90 7 0 20 -16 28 -36z m-1549 20 c-3 -3
-12 -4 -19 -1 -8 3 -5 6 6 6 11 1 17 -2 13 -5z m6958 -33 c19 -11 31 -26 33
-43 l3 -26 -68 27 c-53 22 -69 33 -71 51 -4 21 -1 22 35 16 21 -4 52 -15 68
-25z m-830 -44 c-10 -8 -15 -19 -12 -24 4 -6 0 -16 -8 -23 -10 -9 -15 -9 -15
-1 0 6 5 11 11 11 5 0 7 5 4 10 -8 12 12 40 28 40 6 0 3 -6 -8 -13z m521 -3
c41 -12 54 -20 54 -35 0 -18 -8 -19 -137 -19 l-138 0 0 25 c0 21 6 26 35 31
19 3 42 7 50 9 37 7 86 4 136 -11z m-5086 -25 c-35 -30 -70 -53 -70 -46 0 6
92 77 99 77 3 -1 -10 -14 -29 -31z m520 17 c0 -10 -22 -16 -77 -21 -167 -15
-338 -99 -455 -223 -208 -221 -239 -507 -83 -762 79 -127 207 -240 330 -288
29 -11 51 -27 53 -37 5 -22 -15 -16 -137 42 -156 74 -277 213 -338 385 -34 95
-42 275 -18 384 67 302 348 526 668 533 42 1 57 -3 57 -13z m3604 -1 c-4 -8
-13 -15 -21 -15 -13 0 -13 3 -3 15 7 8 16 15 21 15 5 0 6 -7 3 -15z m1227 -47
c46 -13 72 -39 67 -66 -3 -19 -5 -19 -64 8 -40 18 -63 35 -67 49 -6 25 7 27
64 9z m-6737 -12 c26 -8 62 -26 82 -41 28 -22 32 -29 24 -45 -5 -10 -10 -28
-10 -39 0 -29 -12 -26 -38 8 -30 41 -101 73 -154 69 -34 -2 -44 -7 -46 -23 -2
-18 2 -20 46 -17 79 6 126 -27 138 -96 3 -15 12 -32 21 -39 13 -10 12 -13 -13
-18 -75 -17 -148 -36 -152 -40 -2 -2 -1 -8 2 -14 4 -6 18 -6 39 0 49 14 144
11 150 -4 4 -10 -14 -18 -61 -30 -37 -8 -80 -20 -95 -26 -39 -15 -26 -32 16
-20 17 5 55 9 84 9 43 0 51 -3 49 -17 -2 -13 -24 -23 -79 -36 -46 -12 -77 -24
-77 -32 0 -10 9 -11 38 -4 56 13 118 11 131 -5 9 -11 -2 -17 -60 -32 -39 -10
-79 -24 -88 -31 -13 -11 -6 -12 44 -6 33 3 65 7 70 7 6 1 11 -3 12 -8 1 -5 7
-12 14 -17 8 -4 -4 -11 -32 -19 -80 -20 -109 -31 -109 -41 0 -9 84 -4 118 7 8
2 20 -3 28 -10 12 -13 5 -18 -56 -37 -39 -13 -69 -28 -66 -34 2 -5 7 -9 12 -9
5 1 32 5 60 9 l51 6 2 -69 2 -69 -68 -17 c-37 -10 -76 -20 -86 -23 -16 -4 -18
-11 -12 -51 3 -26 9 -58 12 -72 4 -22 2 -20 -19 10 -23 34 -76 186 -70 203 1
5 -8 6 -20 2 -19 -5 -18 -3 5 10 34 20 36 45 3 45 -28 0 -30 25 -3 45 18 13
23 35 9 35 -5 0 -31 -7 -57 -15 -27 -8 -51 -12 -54 -10 -2 3 2 5 10 5 11 0 11
2 2 8 -9 5 5 19 42 41 57 35 65 55 16 41 -38 -11 -111 -45 -140 -67 -22 -16
-23 -16 -20 1 2 11 41 40 91 70 76 45 108 76 78 76 -23 0 -123 -44 -149 -65
-28 -24 -41 -24 -41 1 0 7 43 38 95 69 95 55 121 83 68 71 -41 -10 -125 -52
-151 -76 -12 -11 -22 -17 -22 -12 0 5 18 22 40 37 28 19 37 31 29 36 -12 7 -3
13 97 75 15 9 16 15 7 24 -14 15 -82 -15 -149 -66 l-43 -33 -7 45 c-18 120 38
251 135 319 87 60 185 78 275 51z m6466 -56 c62 -12 62 -12 54 -34 -5 -14 -25
-16 -141 -16 -134 0 -134 0 -131 23 2 17 11 23 43 28 65 10 119 10 175 -1z
m305 -69 c19 -11 31 -26 33 -43 l3 -27 -50 21 c-42 18 -71 48 -71 74 0 8 54
-8 85 -25z m-902 -57 c10 -3 17 -15 17 -30 0 -22 -4 -24 -44 -24 -45 0 -56 10
-56 52 0 20 16 20 83 2z m62 -4 c-2 -31 -15 -37 -15 -7 0 15 4 27 8 27 5 0 8
-9 7 -20z m579 0 c26 -8 35 -14 26 -20 -7 -4 -9 -13 -6 -19 8 -13 -49 -14
-196 -4 -86 5 -96 8 -95 24 1 13 12 21 37 25 19 3 40 7 45 10 17 7 148 -5 189
-16z m267 -66 c20 -10 29 -22 29 -39 l0 -25 -50 25 c-27 14 -50 29 -50 34 0 4
-10 13 -22 20 -20 10 -17 11 21 6 24 -3 56 -12 72 -21z m-7302 -72 c-14 -63
-10 -157 11 -223 24 -79 10 -104 -20 -35 -28 67 -40 154 -30 225 10 70 15 82
34 75 10 -4 12 -14 5 -42z m6456 28 c-3 -5 -1 -10 6 -10 8 0 8 -4 -1 -15 -7
-8 -16 -15 -21 -15 -10 0 -12 34 -2 43 10 11 25 8 18 -3z m557 -10 c29 -8 35
-14 31 -30 -6 -23 -14 -23 -176 -13 -93 5 -107 8 -107 24 0 10 8 20 18 22 34
9 198 7 234 -3z m290 -68 c17 -10 28 -25 28 -39 l0 -22 -47 20 c-25 11 -57 31
-71 46 l-24 26 43 -7 c23 -4 55 -14 71 -24z m468 -58 c172 -31 261 -51 274
-62 23 -22 21 -41 -44 -313 -28 -118 -71 -299 -95 -404 -66 -287 -135 -578
-141 -598 -3 -10 -19 -24 -36 -31 -32 -14 -106 -4 -238 30 l-55 14 53 -5 c44
-3 52 -2 52 13 -1 18 -64 92 -79 92 -5 0 -11 3 -13 8 -1 4 -16 15 -33 24 -36
20 -53 75 -28 93 12 9 4 14 -42 24 -31 7 -55 14 -53 16 3 4 126 -17 363 -59
62 -12 83 -12 92 -3 7 7 19 44 27 82 20 95 86 382 151 660 69 295 70 299 53
312 -7 6 -110 27 -228 47 -316 54 -307 51 -312 88 l-5 30 41 -6 c23 -4 156
-27 296 -52z m-1840 21 c-10 -12 -10 -15 1 -16 8 0 5 -4 -6 -9 -11 -5 -66 -9
-121 -9 -82 -1 -103 2 -108 14 -7 18 15 24 109 28 39 2 85 4 104 5 29 2 32 0
21 -13z m1100 -31 l68 -17 7 -43 c4 -32 1 -54 -14 -86 -15 -33 -20 -38 -20
-20 -1 33 -39 30 -52 -6 -6 -17 -21 -32 -39 -39 -29 -11 -30 -11 -23 15 13 50
9 67 -14 70 -17 3 -27 -6 -42 -35 -11 -21 -20 -33 -21 -28 0 6 -15 16 -33 23
-46 17 -77 52 -98 114 -16 49 -17 53 -1 60 34 13 214 8 282 -8z m266 -56 c25
-12 26 -15 21 -71 -6 -67 -44 -152 -84 -188 l-28 -24 21 25 c25 29 37 60 25
60 -5 0 -7 17 -4 39 7 51 -20 64 -42 20 -18 -33 -35 -30 -35 7 0 14 -7 27 -15
30 -25 10 -17 43 16 74 20 17 28 33 24 41 -10 15 59 6 101 -13z m-6496 -435
c33 -130 59 -195 83 -210 7 -4 32 -44 56 -88 49 -92 161 -263 206 -315 17 -19
37 -44 45 -55 14 -19 14 -19 -3 -6 -29 23 -41 -1 -17 -32 12 -15 20 -27 17
-27 -9 0 -137 160 -184 230 -149 222 -256 544 -252 753 2 56 3 53 9 -30 5 -51
23 -150 40 -220z m5360 282 c131 -9 540 -44 587 -50 26 -4 51 -16 67 -32 l26
-26 -2 -501 c-1 -341 -4 -437 -8 -301 -3 145 -9 207 -19 225 -13 23 -15 24
-22 5 -4 -11 -8 96 -8 237 -1 270 -6 304 -45 313 -12 3 -118 14 -236 25 -313
29 -529 54 -500 58 14 2 29 10 33 18 4 8 16 15 25 15 9 1 -10 8 -43 15 l-60
13 60 -4 c33 -3 98 -7 145 -10z m-5966 -27 c-5 -8 -2 -9 11 -4 15 5 16 4 5 -9
-11 -13 -15 -13 -21 -3 -12 18 -11 28 2 28 5 0 7 -5 3 -12z m7248 -168 c3 9
14 8 43 -4 21 -9 45 -14 53 -11 8 3 16 -3 19 -15 4 -13 17 -21 42 -26 56 -9
60 -12 14 -13 -24 -1 -43 -5 -43 -9 0 -10 36 -29 65 -35 17 -3 14 -7 -15 -21
-19 -10 -44 -23 -56 -29 l-20 -12 24 -55 24 -55 32 36 c17 20 42 67 56 103 14
36 28 66 33 66 11 0 10 -4 -31 -92 -25 -53 -50 -91 -69 -105 l-31 -22 -26 49
c-30 55 -59 80 -93 80 -13 0 -23 4 -23 10 0 5 -7 7 -15 4 -11 -5 -13 -2 -8 12
4 12 3 15 -5 10 -8 -5 -10 -2 -5 10 5 13 2 15 -18 10 -22 -6 -22 -6 -4 5 19
12 19 12 0 20 -19 7 -19 8 -1 8 15 1 17 7 14 31 -3 17 -1 30 4 30 5 0 1 15 -8
33 l-16 32 30 -28 c18 -18 31 -24 34 -17z m-7202 -22 c0 -36 -4 -35 -14 5 -4
16 -2 27 4 27 5 0 10 -14 10 -32z m5903 -38 c-7 -8 -23 24 -22 45 0 15 3 13
13 -10 7 -16 11 -32 9 -35z m-137 -7 c57 -23 85 -44 164 -121 52 -52 109 -100
125 -107 17 -7 50 -32 75 -55 l45 -41 -45 23 c-25 13 -47 27 -49 31 -3 7 -83
61 -88 60 -2 -1 -26 5 -55 13 -29 8 -66 17 -83 20 -29 4 -113 28 -145 41 -8 3
-28 7 -45 9 -16 2 -35 11 -42 20 -7 9 -19 14 -28 11 -9 -4 -15 -1 -15 8 0 20
9 19 72 -5 29 -11 87 -28 128 -39 41 -11 105 -31 143 -45 37 -14 67 -23 67
-20 0 10 -137 67 -200 82 -52 14 -68 23 -86 49 -16 25 -23 29 -28 18 -10 -26
-43 -16 -86 25 -23 22 -46 40 -51 40 -5 0 -9 5 -9 11 0 22 159 3 236 -28z
m-251 17 c-3 -5 -14 -10 -23 -9 -14 0 -13 2 3 9 27 11 27 11 20 0z m-4082
-122 c20 -36 24 -48 13 -48 -8 0 -25 -14 -37 -31 l-22 -31 -24 29 -24 28 17
-35 c9 -19 26 -48 37 -65 16 -23 17 -27 4 -16 -9 7 -17 10 -17 6 0 -5 -16 13
-36 38 -43 55 -51 59 -28 16 8 -17 11 -28 5 -24 -16 9 -99 -54 -109 -84 -9
-25 -10 -24 -50 38 -46 70 -49 78 -28 78 18 0 78 50 98 82 l15 23 22 -36 c32
-51 34 -45 5 20 -35 80 -16 95 26 20 36 -62 49 -75 23 -21 l-16 34 34 35 c39
39 36 41 92 -56z m4017 69 c27 -9 36 -18 38 -39 2 -19 -2 -28 -17 -33 -12 -3
-21 -11 -21 -17 0 -14 -98 -3 -143 16 -31 12 -31 13 -9 20 20 7 22 12 17 37
l-7 29 54 -1 c29 0 69 -5 88 -12z m-4281 -300 c26 -40 79 -106 116 -147 56
-62 52 -59 -26 20 -52 52 -111 120 -132 150 -33 49 -117 227 -117 248 0 4 25
-39 55 -96 30 -57 77 -135 104 -175z m4086 203 c-16 -15 -28 -18 -58 -13 -45
7 -42 13 10 20 21 3 40 7 42 9 2 2 9 4 15 4 6 0 2 -9 -9 -20z m1534 -33 c9
-24 41 -211 41 -241 0 -14 -7 -16 -52 -10 -29 4 -64 10 -78 14 -23 7 -23 8 12
15 21 4 45 4 54 1 14 -5 16 -1 11 21 -3 16 -11 65 -18 111 -11 73 -16 85 -38
97 -26 14 -25 14 17 15 35 0 44 -4 51 -23z m-6139 -52 c0 -5 -5 -3 -10 5 -5 8
-10 20 -10 25 0 6 5 3 10 -5 5 -8 10 -19 10 -25z m-445 -82 c57 -23 85 -28
151 -28 70 0 78 -2 55 -11 -24 -11 -23 -12 16 -9 23 2 51 9 63 15 12 6 24 10
26 7 3 -2 -12 -13 -33 -23 -24 -11 -69 -19 -123 -22 -72 -4 -93 -1 -131 17
-55 26 -111 71 -140 114 l-22 32 34 -32 c19 -17 66 -44 104 -60z m861 40 c16
-26 49 -77 73 -113 27 -41 35 -57 20 -43 -21 19 -26 20 -43 7 -36 -26 -56 -65
-44 -88 16 -32 -57 52 -97 110 -40 60 -60 107 -47 112 5 1 29 16 53 32 24 15
46 29 50 29 3 1 18 -20 35 -46z m4778 18 c11 -4 21 -17 23 -29 2 -17 -2 -21
-17 -19 -11 2 -22 6 -26 10 -4 3 -15 2 -25 -4 -25 -13 -26 8 -1 32 19 20 20
20 46 10z m126 -1 c20 -6 21 -8 5 -8 -11 0 -33 4 -50 8 -27 7 -27 8 -5 8 14 0
36 -4 50 -8z m73 -17 c-7 -2 -21 -2 -30 0 -10 3 -4 5 12 5 17 0 24 -2 18 -5z
m-5105 -120 c33 -54 84 -126 112 -161 28 -35 45 -62 38 -61 -19 2 -31 0 -48
-11 -12 -7 -11 -12 5 -32 12 -14 6 -11 -14 7 -60 54 -151 176 -191 255 l-39
77 32 15 c18 9 35 14 38 12 3 -1 33 -47 67 -101z m5094 -23 c6 0 16 -7 22 -15
6 -9 35 -19 64 -24 29 -4 60 -15 70 -24 20 -18 132 -49 132 -36 0 5 7 9 15 9
8 0 15 -9 15 -19 0 -15 18 -28 64 -50 35 -17 71 -31 80 -31 11 0 16 -9 16 -29
0 -26 -6 -32 -53 -49 -68 -26 -76 -27 -113 -18 -21 5 -44 2 -68 -8 -20 -8 -34
-11 -31 -7 9 16 -33 19 -77 6 -24 -7 -119 -37 -213 -65 -93 -29 -195 -60 -225
-68 l-55 -15 -138 71 c-75 40 -149 72 -164 72 -14 0 -64 20 -110 45 -45 25
-93 45 -105 45 -38 1 1 18 58 26 63 8 83 16 116 47 25 23 25 26 10 43 -16 18
-16 18 3 2 22 -17 104 -58 117 -58 4 0 8 9 8 20 0 14 7 20 23 20 12 0 30 -9
40 -20 20 -24 36 -25 63 -5 10 8 38 15 60 15 23 0 66 11 95 24 79 35 92 39
117 42 13 2 35 11 49 21 14 10 34 23 45 29 11 7 25 17 31 23 8 8 13 7 20 -4 4
-8 13 -15 19 -15z m742 -58 c5 -8 31 -200 42 -304 4 -47 3 -68 -5 -68 -6 0
-13 10 -15 23 -7 29 -56 340 -56 350 0 9 28 9 34 -1z m342 -273 c-15 -33 -15
-33 -16 -7 0 14 -6 28 -12 31 -7 2 -3 2 10 0 12 -2 22 2 22 8 0 7 2 10 5 7 3
-3 -1 -20 -9 -39z m-1751 17 c7 3 23 -9 36 -27 l23 -33 -47 33 c-26 17 -47 35
-47 38 0 4 5 2 11 -4 6 -6 17 -9 24 -7z m-3588 -497 c34 -6 68 -9 75 -6 7 3 0
6 -17 6 -16 1 -37 6 -45 12 -11 8 -6 9 20 5 19 -3 75 -10 123 -15 56 -7 93
-16 103 -26 9 -9 14 -18 12 -20 -13 -13 -361 44 -377 61 -3 4 5 4 19 1 14 -4
53 -12 87 -18z m2293 1 c0 -5 8 -10 18 -10 14 0 15 2 2 10 -11 7 -5 10 23 10
20 0 37 -4 37 -10 0 -5 8 -10 18 -10 14 0 15 2 2 10 -12 8 -10 10 8 10 13 0
20 -4 17 -10 -3 -5 -2 -10 4 -10 6 0 7 -8 4 -17 -5 -12 -2 -15 9 -11 8 4 21 2
29 -3 11 -7 8 -9 -9 -9 -13 0 -20 -4 -17 -10 4 -6 11 -8 16 -5 5 4 9 1 9 -4 0
-10 -30 -16 -55 -11 -5 1 -4 -4 3 -11 6 -7 12 -20 12 -28 0 -8 -10 -3 -25 15
-19 22 -25 25 -25 12 0 -30 -20 -31 -45 -2 -24 28 -24 28 -45 9 -11 -10 -18
-25 -16 -32 7 -16 -6 -17 -21 -2 -9 9 -20 9 -43 0 -18 -6 -36 -8 -41 -5 -5 3
-9 1 -9 -4 0 -19 -46 -6 -62 18 -18 25 -18 25 -18 3 0 -22 -14 -31 -23 -15 -2
4 -2 1 -1 -5 4 -16 -12 -17 -21 -3 -4 6 -15 8 -26 5 -14 -5 -19 -1 -20 12 0
14 -2 15 -6 3 -8 -21 -36 -40 -50 -35 -7 2 -10 -6 -8 -25 2 -16 0 -32 -6 -35
-5 -4 -9 1 -9 9 0 19 -17 21 -23 4 -3 -10 -7 -10 -20 1 -22 18 -22 31 1 31 13
0 14 -2 3 -9 -10 -6 -10 -10 -1 -16 7 -4 13 1 17 14 3 11 9 19 12 16 4 -2 8 2
8 11 0 9 -7 12 -19 8 -13 -4 -18 0 -18 13 0 15 -2 15 -9 3 -6 -8 -7 -18 -5
-22 3 -4 -2 -8 -11 -8 -11 0 -15 -5 -11 -15 8 -20 14 -42 9 -32 -3 4 -11 7
-19 7 -8 0 -14 5 -14 11 0 5 5 7 12 3 7 -4 8 -3 4 4 -10 16 -33 15 -39 0 -4
-10 -8 -9 -16 2 -11 15 -15 8 -12 -22 1 -9 -3 -20 -10 -24 -8 -4 -9 -3 -5 4
12 19 -3 35 -20 21 -8 -6 -14 -7 -14 -2 0 5 9 15 20 23 27 19 26 34 -2 19 -34
-18 -88 -23 -88 -8 0 10 -3 10 -12 1 -17 -17 -31 -15 -25 2 4 10 1 13 -9 9 -7
-3 -14 -10 -14 -16 0 -6 -9 -1 -20 11 -16 17 -27 21 -48 16 -15 -4 -28 -11
-30 -16 -2 -4 -11 -8 -19 -8 -10 0 -14 6 -10 19 3 14 1 18 -9 14 -8 -3 -14 0
-14 6 0 6 -7 11 -15 11 -8 0 -15 -4 -15 -10 0 -5 -5 -10 -12 -10 -7 0 -2 10
11 23 16 15 25 18 28 10 5 -14 23 -18 23 -5 0 5 -12 14 -26 20 -14 7 -23 8
-20 4 5 -8 -46 -52 -60 -52 -16 0 -32 35 -22 48 8 9 6 11 -8 6 -18 -5 -18 -5
0 10 30 24 15 27 -24 4 -19 -10 -27 -17 -17 -14 9 3 17 1 17 -5 0 -14 -31 -24
-39 -11 -3 6 -19 15 -34 21 -15 6 -27 17 -26 23 3 25 -1 38 -12 38 -8 0 -7 -6
2 -17 13 -15 12 -15 -8 -2 -12 7 -18 16 -13 19 4 3 68 7 141 8 74 2 135 4 136
6 1 1 196 3 433 5 293 1 430 -1 430 -9z m170 0 c0 -5 -4 -10 -10 -10 -5 0 -10
5 -10 10 0 6 5 10 10 10 6 0 10 -4 10 -10z m40 6 c0 -2 -7 -9 -15 -16 -12 -10
-15 -10 -15 4 0 9 7 16 15 16 8 0 15 -2 15 -4z m960 -36 c0 -5 -5 -10 -11 -10
-5 0 -7 5 -4 10 3 6 8 10 11 10 2 0 4 -4 4 -10z m-940 -20 c0 -5 -5 -10 -11
-10 -5 0 -7 5 -4 10 3 6 8 10 11 10 2 0 4 -4 4 -10z m-1500 -20 c0 -5 -5 -10
-11 -10 -5 0 -7 5 -4 10 3 6 8 10 11 10 2 0 4 -4 4 -10z m2260 -10 c0 -5 -4
-10 -10 -10 -5 0 -10 5 -10 10 0 6 5 10 10 10 6 0 10 -4 10 -10z m-2061 -26
c-15 -18 -22 -13 -13 10 3 9 10 13 16 10 5 -3 4 -12 -3 -20z m2286 16 c-3 -5
-10 -10 -16 -10 -5 0 -9 5 -9 10 0 6 7 10 16 10 8 0 12 -4 9 -10z m-1205 -10
c0 -5 -4 -10 -10 -10 -5 0 -10 5 -10 10 0 6 5 10 10 10 6 0 10 -4 10 -10z
m-1160 -20 c0 -5 -7 -7 -15 -4 -8 4 -15 8 -15 10 0 2 7 4 15 4 8 0 15 -4 15
-10z m154 -6 c9 -3 14 -10 11 -15 -7 -10 -35 0 -35 12 0 11 3 11 24 3z m-64
-24 c0 -5 -2 -10 -4 -10 -3 0 -8 5 -11 10 -3 6 -1 10 4 10 6 0 11 -4 11 -10z
m757 4 c-3 -3 -12 -4 -19 -1 -8 3 -5 6 6 6 11 1 17 -2 13 -5z m283 2 c0 -2 -7
-9 -15 -16 -13 -11 -14 -10 -9 4 5 14 24 23 24 12z m-740 -16 c0 -5 -4 -10 -9
-10 -6 0 -13 5 -16 10 -3 6 1 10 9 10 9 0 16 -4 16 -10z m425 -20 c-6 -9 -9
-9 -16 1 -10 17 0 34 13 21 6 -6 7 -16 3 -22z m92 -5 c-4 -8 -11 -15 -17 -15
-6 0 -6 7 2 20 14 22 24 19 15 -5z m-421 -12 c-10 -10 -19 5 -10 18 6 11 8 11
12 0 2 -7 1 -15 -2 -18z m378 15 c-3 -4 -12 -8 -20 -8 -8 0 -14 -5 -14 -11 0
-6 7 -8 18 -4 14 5 15 4 5 -6 -10 -10 -16 -10 -24 -2 -17 17 -4 42 20 40 11 0
17 -5 15 -9z m-324 -2 c0 -3 -4 -8 -10 -11 -5 -3 -10 -1 -10 4 0 6 5 11 10 11
6 0 10 -2 10 -4z m556 -23 c-10 -10 -19 5 -10 18 6 11 8 11 12 0 2 -7 1 -15
-2 -18z m-3585 -646 c31 -87 59 -160 62 -163 2 -3 24 48 47 113 24 65 51 138
60 163 l18 45 63 0 64 0 2 -250 c1 -137 0 -245 -3 -239 -3 7 -20 8 -49 4 -25
-4 -46 -6 -46 -6 -1 1 -5 62 -8 136 l-6 134 -49 -129 c-27 -72 -53 -134 -59
-140 -7 -7 -8 -6 -3 3 7 12 3 13 -58 16 -16 1 -28 24 -58 106 -22 58 -43 114
-48 125 -6 13 -9 -24 -9 -105 l-1 -125 -47 0 c-27 0 -51 5 -55 10 -4 6 -8 113
-8 238 l0 228 68 -3 67 -3 56 -158z m707 111 l3 -48 -95 0 -96 0 0 -70 0 -70
80 0 80 0 0 -45 0 -45 -80 0 -80 0 0 -81 0 -81 -50 4 c-38 2 -50 -1 -54 -12
-2 -8 -4 101 -5 243 l-1 259 148 -4 147 -3 3 -47z m318 27 c92 -38 119 -99
119 -265 -1 -99 -4 -122 -23 -162 -23 -45 -60 -90 -46 -55 7 19 -50 33 -99 23
l-32 -6 31 19 c47 29 56 63 52 195 -3 110 -4 117 -29 142 -19 19 -38 27 -65
28 l-39 1 -5 -190 c-3 -104 -7 -185 -8 -179 -1 6 -24 10 -52 9 l-50 -1 0 234
0 235 104 -6 c60 -3 120 -13 142 -22z m303 -227 c-1 -139 -4 -244 -7 -233 -9
26 -89 31 -95 6 -3 -9 -5 95 -6 232 l-1 247 55 0 55 0 -1 -252z m342 207 c17
-63 109 -479 108 -490 0 -5 -4 -1 -8 10 -9 23 -90 34 -92 12 -1 -6 -7 6 -13
28 l-13 40 -67 3 c-65 3 -67 2 -76 -25 -9 -25 -15 -28 -58 -28 l-49 0 19 85
c41 184 90 395 95 403 3 5 36 7 74 5 l69 -2 11 -41z m592 0 c5 -22 28 -123 52
-225 23 -102 45 -199 48 -216 l6 -32 -49 13 c-27 7 -51 11 -53 9 -2 -3 -7 9
-10 26 -6 30 -7 30 -77 30 -66 0 -70 -1 -76 -25 -3 -14 -14 -25 -23 -26 -41
-2 -76 -11 -84 -22 -5 -7 -5 4 -2 23 8 40 104 458 111 478 3 9 24 12 76 10
l72 -3 9 -40z m428 23 c68 -29 107 -110 94 -197 -8 -54 -19 -77 -53 -113 l-25
-27 27 -61 c14 -34 26 -62 26 -63 0 -1 -25 -2 -55 -2 l-55 0 -21 53 c-19 46
-25 52 -50 52 -27 0 -29 -3 -29 -40 0 -42 -7 -46 -77 -40 -17 1 -23 -4 -25
-22 -3 -46 -15 201 -17 341 l-1 144 113 -5 c66 -3 127 -12 148 -20z m462 -25
c3 -27 3 -51 0 -55 -2 -5 -29 -8 -59 -8 l-54 0 0 -172 c0 -134 -3 -169 -12
-160 -7 7 -29 12 -49 12 -31 0 -38 -4 -42 -22 -2 -13 -5 42 -6 122 -1 80 -4
162 -7 183 l-7 37 -53 0 -54 0 0 48 c0 27 3 52 7 55 3 4 79 7 168 7 l162 0 6
-47z m303 -28 c10 -65 25 -175 40 -301 l6 -52 -37 0 c-21 0 -41 -5 -45 -12 -6
-9 -55 222 -86 403 l-6 38 58 -3 59 -3 11 -70z m248 58 c7 -23 62 -316 70
-370 l6 -41 -36 10 c-26 7 -39 6 -44 -2 -4 -6 -15 29 -24 77 -22 106 -27 126
-32 121 -2 -2 -13 -51 -25 -108 -13 -57 -25 -97 -28 -89 -7 16 -53 20 -63 4
-5 -6 -8 -3 -8 7 0 21 58 365 66 390 8 26 110 26 118 1z m250 -30 c-4 -27 -21
-119 -38 -207 l-31 -159 -43 -1 c-40 -1 -42 0 -42 29 0 32 39 352 45 373 3 8
24 12 60 12 l56 0 -7 -47z m311 27 c17 -6 42 -23 58 -38 65 -62 62 -211 -6
-268 l-29 -24 16 -43 c13 -33 13 -38 2 -23 -12 14 -25 17 -60 14 -37 -2 -47 0
-52 14 -3 12 -15 18 -35 18 -23 0 -29 -5 -30 -22 -1 -17 -2 -19 -6 -5 -2 9
-14 17 -26 17 -12 0 -32 3 -44 6 -18 5 -22 1 -26 -23 -2 -15 -5 65 -6 178 0
113 2 209 7 214 10 10 200 -1 237 -15z m788 10 c107 -17 149 -71 148 -191 0
-81 -24 -135 -73 -164 -35 -20 -158 -34 -158 -17 0 9 -53 26 -85 27 -19 0 -24
32 -24 187 l-1 157 68 4 c37 2 67 4 67 5 0 1 26 -2 58 -8z m897 -40 l0 -50
-89 0 -89 0 -4 -66 c-1 -36 -1 -68 1 -70 2 -2 37 -4 78 -4 l73 0 0 -45 0 -45
-80 0 -80 0 -1 -27 c-1 -23 -3 -24 -6 -6 -3 16 -13 22 -44 25 -29 3 -39 0 -41
-12 -2 -26 -16 171 -17 257 l-1 82 68 4 c37 2 104 4 150 5 l82 2 0 -50z m281
40 c100 -19 142 -72 142 -180 0 -96 -44 -165 -98 -153 -53 11 -82 15 -105 14
-124 -5 -125 -5 -131 -31 -4 -14 -7 16 -8 65 -1 50 -4 133 -8 187 -6 96 -6 96
18 101 45 8 136 7 190 -3z m-1541 -40 c20 -73 80 -349 79 -362 0 -10 -2 -10
-6 0 -2 6 -22 12 -43 12 -22 0 -60 7 -85 15 -33 12 -54 13 -79 7 -19 -6 -48
-9 -65 -7 -17 1 -31 -2 -31 -8 0 -6 -3 -8 -6 -4 -3 3 13 92 37 196 l44 191 72
0 72 0 11 -40z m836 14 c55 -41 69 -70 72 -152 4 -89 -14 -132 -68 -170 -36
-24 -77 -23 -129 4 -14 8 -49 14 -78 14 -41 0 -52 -4 -56 -17 -3 -10 -5 65 -6
165 l-1 184 119 -4 c102 -3 124 -6 147 -24z m-78 -351 c-10 -2 -28 -2 -40 0
-13 2 -5 4 17 4 22 1 32 -1 23 -4z m-800 -50 c-16 -2 -40 -2 -55 0 -16 2 -3 4
27 4 30 0 43 -2 28 -4z m-773 -392 c440 -6 838 -12 885 -14 47 -1 -207 -5
-565 -9 -357 -4 -777 -12 -932 -17 -179 -6 -434 -6 -705 0 -232 5 -706 13
-1053 17 l-630 7 780 8 c429 4 881 11 1005 16 124 5 268 7 320 6 52 -1 455 -8
895 -14z"/>
<path d="M6310 7684 c0 -5 7 -18 15 -28 8 -11 15 -16 15 -10 0 5 -7 18 -15 28
-8 11 -15 16 -15 10z"/>
<path d="M6390 7639 c0 -5 5 -7 10 -4 6 3 10 8 10 11 0 2 -4 4 -10 4 -5 0 -10
-5 -10 -11z"/>
<path d="M6577 7543 c-10 -10 -8 -23 4 -23 5 0 8 4 5 9 -4 5 0 12 6 14 7 3 8
6 2 6 -6 1 -14 -2 -17 -6z"/>
<path d="M3073 7029 c-45 -29 -41 -34 7 -9 38 19 50 30 33 30 -5 0 -23 -10
-40 -21z"/>
<path d="M2854 6858 l-19 -23 23 19 c21 18 27 26 19 26 -2 0 -12 -10 -23 -22z"/>
<path d="M5410 6791 c19 -17 27 -28 18 -25 -16 5 -22 -3 -20 -27 0 -3 -8 -11
-20 -18 -14 -9 -18 -9 -13 -1 6 9 2 9 -15 0 -12 -6 -19 -17 -17 -24 4 -9 -2
-11 -19 -8 -15 3 -24 0 -24 -8 0 -7 -7 -10 -15 -7 -8 4 -17 2 -20 -4 -4 -5
-11 -7 -16 -4 -5 4 -9 2 -9 -4 0 -5 -9 -9 -20 -8 -11 1 -20 5 -20 9 0 5 -8 4
-17 -1 -40 -20 -96 -32 -136 -30 -23 1 -52 -3 -65 -10 -18 -10 -27 -10 -38 0
-11 9 -14 9 -14 -2 0 -9 -3 -10 -8 -4 -9 14 -75 14 -84 1 -5 -7 -11 -8 -15 -1
-10 13 -47 19 -39 7 3 -6 -5 -5 -18 1 -13 7 -22 16 -18 22 3 5 -2 4 -11 -4
-11 -9 -17 -10 -17 -2 0 12 -52 15 -64 4 -11 -11 -75 -13 -81 -2 -4 5 1 6 9 3
11 -4 16 0 16 12 0 9 3 15 6 11 3 -3 13 2 23 11 9 10 28 25 41 35 24 17 24 17
-9 0 -18 -10 -43 -27 -56 -38 -12 -11 -28 -21 -35 -23 -7 -1 -78 -45 -159 -96
-80 -51 -263 -167 -406 -258 -143 -90 -308 -195 -367 -232 -103 -65 -108 -70
-108 -102 l0 -34 140 0 140 0 0 -605 c0 -655 -1 -648 53 -672 24 -11 877 -5
2068 15 405 7 428 8 449 27 l21 19 -1 596 c-1 327 -1 603 -1 612 1 15 16 18
134 20 l132 3 3 27 c4 33 -5 40 -268 203 -113 70 -220 138 -237 152 l-33 24 0
112 c0 62 -3 163 -7 225 l-6 112 -151 0 -151 0 3 -104 c3 -108 -6 -146 -34
-146 -8 0 -90 52 -182 116 -92 65 -180 126 -197 136 -27 18 -26 17 5 -11z
m700 -48 c0 -25 -3 -44 -6 -40 -4 3 -12 0 -20 -7 -14 -15 -83 -11 -98 5 -6 5
-20 9 -33 9 -13 0 -23 5 -23 10 0 6 -6 10 -12 9 -39 -5 -58 2 -58 21 0 11 -7
20 -15 20 -8 0 -15 5 -15 10 0 6 53 10 140 10 l140 0 0 -47z m-803 -349 c-3
-3 -12 -4 -19 -1 -8 3 -5 6 6 6 11 1 17 -2 13 -5z m-64 -11 c-7 -2 -19 -2 -25
0 -7 3 -2 5 12 5 14 0 19 -2 13 -5z m-336 -49 c-3 -3 -12 -4 -19 -1 -8 3 -5 6
6 6 11 1 17 -2 13 -5z m552 -95 c1 -39 -10 -49 -55 -49 -23 0 -24 3 -24 64 l0
65 33 3 c35 3 43 -11 46 -83z m-692 75 c-3 -3 -12 -4 -19 -1 -8 3 -5 6 6 6 11
1 17 -2 13 -5z m493 -83 l0 -68 -46 -7 c-96 -13 -94 -14 -94 58 l0 64 63 10
c34 5 65 10 70 11 4 0 7 -30 7 -68z m-255 -41 l0 -64 -60 -13 c-33 -7 -63 -12
-67 -13 -5 0 -8 31 -8 70 l0 69 38 6 c20 4 44 8 52 10 40 8 45 1 45 -65z
m-255 -34 c0 -73 1 -71 -90 -82 l-61 -7 3 69 3 69 40 6 c22 3 55 7 73 8 l32 1
0 -64z m-280 -40 c0 -36 -4 -67 -8 -70 -5 -3 -39 -8 -76 -12 l-67 -7 3 69 3
69 40 6 c22 3 55 7 73 8 l32 1 0 -64z m-290 -45 l0 -68 -52 -7 c-102 -12 -98
-14 -98 58 l0 64 63 10 c34 5 68 10 75 11 8 1 12 -19 12 -68z m2020 -445 l0
-454 -32 -48 c-41 -61 -98 -99 -179 -120 -111 -29 -224 10 -260 90 -46 103 2
211 123 276 59 32 69 35 156 35 l92 0 0 181 c0 99 -2 183 -5 186 -3 2 -122
-27 -265 -66 l-260 -70 0 -300 c0 -283 -1 -302 -21 -342 -83 -173 -375 -207
-454 -53 -34 64 -7 170 55 222 73 62 178 94 251 78 l39 -9 0 327 c0 179 4 332
9 339 4 7 111 38 237 68 126 30 281 67 344 83 63 16 127 30 143 30 l27 1 0
-454z m-933 257 c-3 -10 -5 -4 -5 12 0 17 2 24 5 18 2 -7 2 -21 0 -30z m-1082
-6 c4 -18 5 -51 3 -72 l-3 -40 -65 -11 c-36 -6 -69 -8 -73 -4 -4 4 -7 36 -5
71 l3 64 55 11 c79 17 79 17 85 -19z m200 -55 c28 -8 57 -21 66 -28 25 -22 63
-20 97 4 17 13 47 29 66 37 31 13 40 13 70 1 18 -8 48 -32 66 -55 41 -51 62
-58 103 -33 17 11 58 28 89 38 50 15 62 16 98 4 37 -12 43 -12 68 7 83 61 112
62 173 8 20 -18 42 -34 49 -37 9 -3 15 -27 18 -68 l5 -63 -30 6 c-37 7 -53 -3
-164 -108 -66 -63 -100 -86 -145 -103 -41 -15 -74 -36 -109 -72 -29 -29 -43
-50 -35 -51 8 0 -7 -9 -35 -19 -29 -11 -78 -19 -118 -19 -67 -1 -68 -1 -73 28
-5 22 -18 36 -58 57 -28 15 -81 55 -118 89 -39 36 -89 71 -122 85 l-56 23 1
96 c1 53 3 89 6 79 5 -19 30 -31 46 -21 6 3 38 9 71 13 l61 6 -35 17 c-19 9
-61 23 -92 32 -54 15 -58 17 -58 46 0 34 -8 33 95 1z m705 6 c0 -11 -39 -20
-60 -13 -11 4 -18 10 -16 14 6 9 76 9 76 -1z m-900 -258 l0 -68 -63 -11 c-94
-16 -88 -20 -85 62 l3 72 65 11 c36 6 68 9 73 7 4 -2 7 -35 7 -73z m0 -259 c0
-78 3 -75 -87 -86 l-53 -7 0 71 c0 77 -5 70 65 84 11 3 32 5 48 6 27 1 27 1
27 -68z m803 -82 c42 -2 -59 -19 -206 -34 -98 -10 -155 -12 -165 -5 -10 5 -13
10 -7 10 5 0 63 7 130 15 149 18 196 22 213 18 8 -2 23 -4 35 -4z m-803 -180
c0 -66 2 -64 -82 -77 l-58 -9 0 67 0 67 63 10 c34 5 65 7 70 5 4 -2 7 -30 7
-63z m770 -53 l0 -64 -50 -11 c-28 -6 -53 -11 -55 -11 -3 0 -5 29 -5 65 l0 64
38 6 c20 4 42 8 47 10 23 8 25 2 25 -59z m-210 -50 l0 -64 -63 -11 c-35 -6
-67 -11 -70 -11 -4 0 -7 29 -7 64 l0 64 48 10 c94 19 92 20 92 -52z m-280 -55
l0 -68 -62 -10 c-35 -6 -66 -9 -69 -7 -4 2 -6 32 -5 66 l1 63 60 11 c33 7 63
12 68 13 4 1 7 -30 7 -68z m-282 -68 l-3 -67 -60 -13 c-33 -7 -64 -12 -68 -13
-4 0 -7 30 -5 67 l3 68 55 11 c86 18 81 22 78 -53z"/>
<path d="M6422 4805 c-7 -14 -12 -40 -12 -58 0 -18 -7 -43 -16 -55 -20 -29
-12 -39 27 -37 28 1 32 5 34 29 0 15 7 31 15 36 12 8 12 10 2 10 -8 0 -12 6
-9 13 2 6 -1 26 -8 44 -8 17 -11 34 -7 37 3 3 1 6 -5 6 -5 0 -15 -11 -21 -25z"/>
<path d="M7159 7022 c7 -12 17 -20 22 -16 6 3 9 7 7 8 -2 1 -12 8 -22 16 -18
14 -19 14 -7 -8z"/>
<path d="M1635 6000 c-3 -6 1 -7 9 -4 18 7 21 14 7 14 -6 0 -13 -4 -16 -10z"/>
<path d="M7405 5607 c11 -36 34 -67 50 -67 13 0 12 6 -4 39 -23 44 -57 66 -46
28z"/>
<path d="M5745 4431 c-3 -5 -1 -12 5 -16 5 -3 10 1 10 9 0 18 -6 21 -15 7z"/>
<path d="M4603 4407 c-2 -14 1 -17 9 -9 6 6 18 8 27 5 13 -5 14 -3 4 7 -20 21
-39 20 -40 -3z"/>
<path d="M4670 4421 c0 -5 5 -13 10 -16 6 -3 10 -2 10 4 0 5 -4 13 -10 16 -5
3 -10 2 -10 -4z"/>
<path d="M5717 4413 c-10 -9 -9 -33 1 -33 4 0 8 9 9 20 2 21 0 24 -10 13z"/>
<path d="M5658 4403 c6 -2 12 -9 12 -14 0 -6 -5 -7 -12 -3 -7 4 -8 3 -4 -4 4
-6 13 -9 22 -5 11 4 12 9 3 19 -6 8 -17 14 -23 13 -7 0 -6 -2 2 -6z"/>
<path d="M5754 4396 c-11 -8 -15 -18 -10 -23 5 -4 11 -2 13 5 4 10 8 10 18 2
10 -9 16 -6 25 9 7 14 7 21 0 21 -5 0 -10 -6 -10 -12 0 -10 -2 -10 -8 -1 -7
10 -12 10 -28 -1z"/>
<path d="M4733 4379 c3 -9 1 -21 -5 -27 -11 -11 -3 -32 13 -32 5 0 9 7 9 15 0
7 8 19 18 25 16 11 16 11 0 6 -10 -3 -22 2 -28 12 -10 14 -11 15 -7 1z"/>
<path d="M5590 4369 c0 -5 5 -7 10 -4 6 3 10 8 10 11 0 2 -4 4 -10 4 -5 0 -10
-5 -10 -11z"/>
<path d="M5635 4350 c-3 -5 -1 -10 4 -10 6 0 11 5 11 10 0 6 -2 10 -4 10 -3 0
-8 -4 -11 -10z"/>
<path d="M5740 4351 c0 -5 5 -13 10 -16 6 -3 10 -2 10 4 0 5 -4 13 -10 16 -5
3 -10 2 -10 -4z"/>
<path d="M5515 4341 c-3 -5 0 -13 6 -17 7 -4 9 -3 5 4 -3 5 0 13 6 15 9 4 10
6 1 6 -6 1 -14 -3 -18 -8z"/>
<path d="M5590 4340 c0 -5 5 -10 10 -10 6 0 10 5 10 10 0 6 -4 10 -10 10 -5 0
-10 -4 -10 -10z"/>
<path d="M4960 4309 c0 -5 5 -7 10 -4 6 3 10 8 10 11 0 2 -4 4 -10 4 -5 0 -10
-5 -10 -11z"/>
<path d="M5060 4300 c0 -5 7 -10 16 -10 8 0 12 5 9 10 -3 6 -10 10 -16 10 -5
0 -9 -4 -9 -10z"/>
<path d="M5160 4300 c0 -5 5 -10 11 -10 5 0 7 5 4 10 -3 6 -8 10 -11 10 -2 0
-4 -4 -4 -10z"/>
<path d="M3616 3518 c-10 -46 -20 -93 -23 -105 -5 -21 -2 -23 41 -23 37 0 46
3 46 18 -1 22 -37 182 -43 188 -2 2 -12 -33 -21 -78z"/>
<path d="M4206 3508 c-9 -46 -19 -91 -22 -100 -5 -16 2 -18 46 -18 39 0 51 3
47 13 -3 8 -13 53 -23 100 -10 48 -21 87 -24 87 -4 0 -14 -37 -24 -82z"/>
<path d="M4600 3556 l0 -96 35 0 c54 0 85 36 85 98 0 59 -20 81 -79 89 l-41 6
0 -97z"/>
<path d="M6185 3638 c-3 -8 -5 -50 -3 -94 l3 -79 40 2 c58 4 89 41 82 101 -6
55 -23 72 -75 79 -31 4 -43 2 -47 -9z"/>
<path d="M7027 3643 c-2 -5 -3 -51 -3 -103 1 -90 2 -95 23 -98 12 -2 35 4 52
12 56 29 64 136 13 176 -24 20 -77 27 -85 13z"/>
<path d="M7068 3373 c12 -2 30 -2 40 0 9 3 -1 5 -23 4 -22 0 -30 -2 -17 -4z"/>
<path d="M8190 3603 c0 -28 -3 -71 -6 -97 l-7 -46 40 0 c26 0 50 8 67 21 22
17 26 28 26 73 0 63 -19 85 -79 93 l-41 6 0 -50z"/>
<path d="M6632 3503 c-12 -54 -22 -102 -22 -106 0 -4 23 -7 51 -7 45 0 50 2
44 18 -3 9 -13 51 -22 92 -8 41 -18 81 -22 88 -4 7 -17 -32 -29 -85z"/>
<path d="M7420 3545 l0 -108 37 6 c53 9 75 36 81 99 5 68 -15 97 -76 105 l-42
6 0 -108z"/>
</g>
</svg>
